<?xml version="1.0" standalone="no"?>
<!DOCTYPE svg PUBLIC "-//W3C//DTD SVG 20010904//EN"
 "http://www.w3.org/TR/2001/REC-SVG-20010904/DTD/svg10.dtd">
<svg version="1.0" xmlns="http://www.w3.org/2000/svg"
 width="474.000000pt" height="474.000000pt" viewBox="0 0 474.000000 474.000000"
 preserveAspectRatio="xMidYMid meet">
<metadata>
Created by potrace 1.16, written by Peter Selinger 2001-2019
</metadata>
<g transform="translate(0.000000,474.000000) scale(0.100000,-0.100000)"
fill="#000000" stroke="none">
<path d="M3205 4510 c38 -10 -68 -13 -275 -8 -230 5 -1273 3 -1517 -2 -123 -3
-223 -8 -223 -12 0 -4 -10 -7 -22 -6 -106 6 -473 -50 -542 -83 l-46 -21 0
-239 0 -239 28 -1 27 -1 -27 -10 c-16 -5 -28 -14 -28 -20 0 -6 7 -8 14 -5 9 4
13 1 11 -6 -12 -37 -13 -96 -2 -101 9 -3 9 -7 -1 -14 -11 -7 -10 -10 3 -16 9
-3 28 -6 41 -6 14 0 24 -6 24 -15 0 -10 6 -12 18 -8 16 7 16 6 0 -11 -10 -9
-18 -24 -18 -32 0 -8 -17 -32 -37 -55 -42 -47 -76 -134 -62 -161 5 -9 9 -46 9
-82 l0 -66 261 0 262 0 32 -35 c19 -19 38 -49 44 -67 6 -18 37 -170 70 -338
33 -168 67 -335 74 -372 8 -37 12 -69 10 -72 -3 -3 -83 4 -90 8 -2 1 -106 558
-123 658 -15 87 -36 110 -98 106 -28 -2 -47 -8 -50 -17 -3 -10 0 -12 12 -8 9
4 16 2 16 -2 0 -5 -7 -11 -15 -15 -8 -3 -15 -13 -15 -23 1 -17 2 -16 15 1 14
19 15 19 15 2 0 -11 -7 -24 -16 -31 -15 -11 -15 -16 -1 -61 9 -27 15 -73 15
-101 -1 -46 -4 -53 -21 -53 -15 0 -17 -3 -8 -13 6 -8 8 -17 4 -20 -3 -4 2 -7
13 -8 10 0 13 -3 7 -6 -7 -2 -13 -11 -13 -18 0 -7 6 -16 13 -18 8 -4 9 -8 1
-14 -17 -12 -26 -73 -11 -73 8 0 8 -3 -2 -9 -11 -7 -10 -13 4 -35 22 -33 12
-46 -15 -21 -11 10 -20 13 -20 7 0 -6 5 -14 10 -17 6 -3 10 -17 10 -31 0 -25
15 -33 23 -11 3 7 6 5 6 -5 1 -10 -6 -18 -14 -18 -8 0 -15 -4 -15 -10 0 -5 7
-10 17 -10 14 0 14 -2 2 -17 -10 -12 -15 -39 -15 -78 1 -65 -8 -82 -52 -95
l-27 -8 30 -1 c68 -3 75 -9 75 -65 0 -29 -2 -55 -5 -57 -2 -3 -36 0 -74 5 -39
5 -74 7 -77 3 -4 -4 -15 -95 -25 -203 -19 -200 -17 -224 17 -224 13 0 17 15
29 113 6 43 4 47 -15 47 -19 0 -21 5 -18 58 l3 57 55 -2 c82 -4 103 -11 95
-31 -10 -24 -34 -235 -35 -304 l0 -58 -40 0 c-22 0 -40 3 -40 8 0 4 -23 8 -52
9 -64 2 -79 17 -86 84 -7 75 18 466 34 517 7 24 10 41 6 38 -13 -13 -29 53
-28 113 1 34 -2 65 -6 67 -5 3 -5 11 -1 17 9 13 11 167 3 167 -5 0 -5 121 0
276 2 45 0 86 -4 92 -3 5 -4 16 -1 24 2 7 6 30 8 50 l4 37 -51 6 c-28 4 -71 5
-96 3 l-45 -3 1 -50 c0 -27 2 -137 3 -243 l2 -193 22 6 c16 5 18 4 8 -3 -7 -5
-11 -15 -7 -21 5 -7 1 -9 -8 -5 -11 4 -16 0 -16 -10 0 -9 10 -21 23 -26 l22
-9 -22 0 c-13 -1 -23 -6 -23 -12 0 -5 4 -8 8 -5 4 2 14 1 22 -5 12 -7 10 -9
-7 -9 -27 0 -31 -17 -5 -23 16 -4 16 -5 0 -6 -15 -1 -17 -12 -17 -81 0 -61 4
-80 14 -80 8 0 16 -4 19 -9 3 -5 -2 -8 -12 -7 -14 1 -18 -9 -20 -47 -2 -27 2
-55 9 -63 8 -10 8 -14 0 -14 -6 0 -11 -7 -11 -15 0 -8 8 -15 18 -15 16 -1 16
-1 0 -11 -21 -11 -24 -49 -5 -49 9 0 8 -3 -2 -9 -11 -7 -10 -11 5 -21 15 -9
15 -10 2 -6 -14 4 -17 -2 -16 -37 0 -23 5 -45 12 -49 8 -6 7 -10 -3 -17 -14
-9 -12 -89 4 -125 6 -14 5 -17 -3 -12 -8 5 -12 -3 -12 -23 0 -22 5 -31 16 -31
14 0 14 -1 0 -16 -18 -18 -22 -39 -5 -28 8 4 8 0 0 -15 -8 -14 -8 -21 -1 -21
5 0 10 -7 10 -16 0 -8 -4 -12 -10 -9 -13 8 -13 -16 1 -52 7 -20 7 -29 -1 -31
-7 -3 -7 -9 2 -20 10 -12 10 -14 1 -8 -7 4 -13 3 -13 -3 0 -5 4 -12 10 -16 5
-3 7 -12 3 -20 -3 -9 1 -15 8 -16 8 0 6 -3 -4 -8 -17 -6 -17 -9 5 -36 12 -16
17 -26 10 -21 -21 13 -37 -6 -17 -21 11 -7 13 -13 7 -13 -7 0 -12 -7 -12 -15
0 -8 6 -15 13 -15 8 0 8 -3 2 -8 -6 -4 -12 -17 -12 -30 -2 -19 2 -22 20 -16
l22 6 -22 -19 c-22 -20 -23 -25 -23 -221 l0 -200 37 -32 c47 -42 73 -52 235
-94 139 -36 244 -56 389 -76 117 -16 353 -38 358 -33 2 1 -5 49 -17 106 -12
56 -22 105 -22 110 0 9 82 9 96 -1 5 -4 16 -34 23 -67 7 -33 23 -105 36 -159
13 -55 22 -103 20 -107 -3 -3 -24 -5 -47 -3 -586 51 -855 103 -1027 196 l-74
40 8 -38 c4 -22 8 -57 10 -79 1 -22 3 -45 4 -51 3 -30 87 -134 143 -176 191
-144 509 -229 1053 -280 188 -17 960 -17 1145 0 597 57 934 155 1109 322 79
75 107 140 110 255 2 57 2 59 -16 42 -31 -27 -162 -84 -258 -110 -155 -44
-353 -76 -615 -102 -279 -27 -270 -26 -270 -10 0 24 59 287 70 313 8 19 17 22
60 22 27 0 50 -2 50 -4 0 -2 -11 -51 -24 -108 -14 -56 -22 -106 -18 -109 19
-17 422 35 665 86 185 38 299 80 340 125 l27 30 0 648 c0 356 3 856 6 1111 l5
464 -171 -7 c-229 -9 -226 -8 -225 -56 0 -22 8 -47 19 -59 17 -19 18 -19 37 0
17 17 39 25 39 14 0 -2 -13 -18 -30 -35 -28 -29 -40 -60 -22 -60 4 0 5 -21 3
-47 l-5 -48 -7 40 -6 40 -2 -43 c-1 -30 -5 -41 -13 -36 -7 4 -8 3 -4 -4 7 -12
39 -2 48 15 3 5 3 2 1 -5 -4 -18 28 -66 37 -53 3 6 4 -19 2 -56 -3 -47 -10
-73 -24 -87 -10 -11 -16 -26 -14 -33 3 -7 1 -15 -4 -18 -6 -4 -10 -18 -10 -33
0 -22 2 -24 11 -12 8 12 10 12 8 -5 -3 -47 2 -84 14 -97 16 -17 19 -98 2 -98
-7 0 -10 11 -7 29 2 17 -3 40 -13 54 -14 22 -20 24 -35 14 -11 -6 -17 -13 -15
-16 3 -2 12 2 21 10 15 12 16 11 10 -11 -5 -17 -4 -20 2 -12 7 11 10 9 15 -7
3 -12 1 -19 -4 -15 -5 3 -6 -14 -3 -38 6 -42 5 -43 -30 -56 -20 -7 -40 -10
-46 -7 -5 3 -10 1 -10 -4 0 -6 14 -11 31 -11 26 0 30 -3 24 -17 -4 -10 -20
-128 -36 -263 -37 -314 -47 -391 -51 -395 -2 -2 -30 -5 -63 -6 l-60 -4 -36
245 c-21 145 -38 235 -42 220 -11 -45 -57 -406 -57 -443 0 -36 -1 -37 -36 -37
-34 0 -36 1 -29 28 12 48 85 565 85 604 0 20 3 39 8 42 4 2 36 6 72 7 l64 3
33 -235 c17 -129 33 -236 34 -239 3 -10 48 385 48 428 1 32 -3 42 -15 42 -10
0 -14 5 -10 16 3 9 2 12 -5 9 -6 -4 -8 -13 -5 -21 3 -7 0 -16 -6 -20 -8 -5 -9
14 -5 67 4 44 3 68 -2 60 -6 -9 -10 -3 -13 22 -3 29 -1 34 9 25 10 -8 13 -7
13 5 0 8 6 18 13 20 6 3 -6 6 -29 6 -22 1 -49 -6 -60 -14 -32 -24 -39 -17 -10
11 35 35 37 103 4 134 -12 11 -17 20 -12 20 6 0 15 -5 21 -11 15 -15 67 16 57
33 -4 6 -3 8 4 4 6 -3 13 -2 17 4 4 6 11 8 16 5 5 -3 6 1 3 9 -3 9 -10 16 -16
16 -5 0 -6 -4 -3 -10 3 -5 1 -10 -4 -10 -15 0 -14 13 2 29 10 12 8 13 -8 7
-16 -6 -18 -5 -7 5 6 7 12 37 12 65 0 47 3 53 23 57 12 2 -1 5 -28 6 -28 0
-56 -4 -63 -11 -7 -7 -12 -8 -12 -2 0 6 5 15 12 22 17 17 10 93 -10 115 -16
18 -15 18 10 12 18 -5 29 -2 35 8 15 27 48 29 79 5 26 -20 27 -20 11 -2 -9 11
-14 24 -10 28 4 4 -1 4 -11 0 -14 -5 -17 -4 -11 5 6 10 3 11 -15 1 -22 -12
-22 -12 -6 11 22 32 22 89 -1 90 -10 1 0 5 22 9 l40 7 -35 3 c-83 7 -103 -4
-113 -65 -24 -133 -100 -534 -112 -590 -8 -38 -15 -78 -15 -87 0 -10 -3 -18
-7 -19 -5 0 -27 -3 -50 -5 -32 -4 -43 -1 -43 8 0 8 15 90 34 183 19 94 51 256
71 360 44 233 49 248 92 296 l35 39 268 0 267 0 6 98 c5 107 -8 154 -61 214
-49 54 -51 117 -3 119 14 0 35 4 45 8 19 7 18 8 -5 14 -17 5 -20 9 -11 15 8 6
10 24 6 62 -5 45 -3 52 10 47 25 -10 19 9 -6 21 -18 8 -19 11 -5 11 17 1 20
45 22 413 l0 62 -40 23 c-68 38 -281 79 -515 98 -300 25 -458 31 -395 15z
m-2210 -620 c3 -5 16 -11 28 -11 18 -1 19 -2 4 -6 -13 -3 -16 -10 -11 -21 4
-10 7 -27 7 -39 -1 -14 5 -23 16 -24 9 -1 -2 -5 -24 -9 -46 -9 -349 -22 -322
-14 17 5 17 34 1 96 -4 13 5 18 48 22 29 3 67 8 83 9 67 8 164 6 170 -3z
m2803 4 c28 -3 52 -11 52 -16 0 -5 -4 -6 -10 -3 -5 3 -10 1 -10 -4 0 -6 8 -11
18 -11 16 -1 16 -1 -1 -14 -17 -13 -17 -14 0 -21 12 -5 14 -9 6 -12 -21 -8
-15 -21 15 -32 21 -9 -1 -10 -97 -6 -68 3 -154 5 -190 6 -56 0 -63 2 -43 12
20 9 23 16 19 49 -3 29 -2 36 8 28 6 -5 15 -7 18 -3 12 11 8 21 -10 25 -31 7
170 9 225 2z m-1288 -804 c-17 -28 -30 -56 -30 -62 0 -8 50 -9 172 -5 179 6
208 1 208 -33 0 -29 -37 -122 -52 -132 -7 -4 -110 -8 -229 -8 l-216 0 -52 -81
c-29 -44 -55 -87 -58 -95 -3 -8 -9 -14 -15 -14 -5 0 -6 4 -3 10 6 10 65 170
65 177 0 1 -92 3 -205 3 -181 0 -205 2 -213 17 -14 24 14 113 44 140 24 22 29
22 197 16 l173 -5 114 60 c63 33 118 61 122 61 4 1 -6 -22 -22 -49z m1496
-762 c-2 -18 -4 -42 -5 -54 -1 -17 -8 -21 -38 -22 -20 -1 -41 -6 -46 -11 -6
-6 -12 -45 -15 -87 l-5 -77 48 7 c42 7 47 6 41 -9 -3 -9 -6 -34 -6 -55 0 -37
0 -37 -49 -44 l-48 -6 -7 -81 c-4 -45 -4 -84 -1 -87 3 -3 25 -1 49 5 l45 10
-6 -51 c-3 -28 -8 -54 -12 -57 -8 -9 -191 -43 -197 -37 -2 3 0 27 6 54 16 78
70 583 64 598 -4 11 10 16 63 21 60 5 90 9 115 14 4 0 6 -14 4 -31z m-2838
-13 c1 -1 -2 -13 -7 -26 -14 -33 -66 -508 -57 -517 4 -3 41 -7 82 -7 40 0 74
-3 74 -7 0 -4 -5 -30 -11 -58 -10 -48 -12 -50 -44 -50 -19 0 -80 5 -135 11
l-101 12 5 26 c8 37 56 461 63 554 l6 79 61 -7 c34 -4 62 -8 64 -10z m332 -13
c0 -4 -4 -12 -9 -17 -5 -6 -26 -123 -47 -262 -30 -207 -35 -255 -24 -268 9
-11 33 -15 91 -15 l78 0 6 33 c29 165 67 414 72 465 l6 62 43 0 c24 0 44 -2
44 -3 0 -2 -6 -17 -14 -33 -8 -16 -17 -54 -21 -84 -14 -111 -76 -481 -85 -505
-19 -50 -45 -56 -181 -46 -143 11 -152 13 -170 47 -19 37 -15 121 20 361 17
117 31 226 31 243 l0 30 80 0 c44 0 80 -4 80 -8z m1750 1 c0 -5 -4 -24 -10
-43 -17 -63 -90 -541 -90 -591 l0 -49 -59 0 c-32 0 -72 -3 -89 -6 l-31 -6 10
33 c5 19 23 111 39 204 16 94 34 192 39 220 9 49 5 78 -5 40 -3 -11 -42 -126
-88 -255 l-82 -235 -55 -3 -56 -3 -6 122 c-4 67 -7 182 -7 256 0 131 -12 171
-23 76 -3 -27 -19 -127 -36 -223 -17 -96 -31 -187 -31 -201 0 -24 -4 -27 -42
-31 -51 -6 -52 -5 -40 19 12 22 100 507 109 599 l6 62 51 6 c28 3 75 6 104 6
l52 0 2 -157 c0 -87 2 -163 2 -170 4 -38 19 -6 73 149 l60 173 79 6 c43 3 89
6 102 7 12 1 22 -1 22 -5z m200 3 c0 -3 -5 -17 -11 -32 -11 -32 -89 -560 -89
-609 l0 -32 -77 -6 c-43 -2 -80 -3 -81 -1 -2 1 1 18 7 36 15 48 91 540 91 591
0 24 3 47 7 50 7 8 153 10 153 3z m-1284 -20 c0 0 -1 -23 -4 -49 l-4 -48 -62
2 -61 3 -21 -130 c-12 -71 -31 -186 -43 -255 -11 -70 -21 -143 -21 -163 l0
-36 -91 0 c-83 0 -90 2 -84 18 8 19 32 146 74 390 31 185 33 178 -50 170 -41
-4 -49 -3 -44 10 3 8 10 35 17 59 l11 45 191 -7 c105 -4 191 -8 192 -9z m321
-28 c2 -39 71 -581 80 -620 l5 -28 -80 0 c-44 0 -87 -2 -95 -5 -11 -5 -13 4
-10 47 2 29 0 73 -4 98 l-9 45 -99 -3 c-61 -3 -103 -8 -107 -15 -4 -7 -20 -47
-35 -89 l-27 -76 -48 -4 c-47 -3 -60 6 -38 28 5 5 69 146 143 314 122 277 133
307 119 323 -14 16 -9 17 94 17 l110 0 1 -32z m-1606 -613 c27 -2 46 -24 54
-62 4 -23 3 -33 -5 -33 -9 0 -11 -12 -6 -38 3 -23 -1 -63 -9 -97 -9 -31 -18
-98 -22 -147 -3 -49 -9 -91 -13 -93 -4 -3 -13 10 -21 28 -7 17 -20 43 -30 57
-12 17 -16 40 -14 73 3 40 1 48 -11 43 -9 -4 -12 -2 -8 5 11 18 11 88 0 92 -7
3 -11 38 -10 88 1 83 2 84 27 83 18 0 23 4 19 15 -5 14 -4 14 12 2 10 -8 27
-15 37 -16z m2893 -16 c-4 -8 3 -9 25 -4 19 4 31 3 31 -4 0 -6 -7 -8 -15 -5
-8 4 -15 1 -15 -5 0 -6 7 -11 15 -11 22 0 20 -79 -2 -96 -16 -11 -16 -13 -2
-14 19 0 68 -50 49 -50 -7 0 -22 7 -32 17 -11 9 -18 11 -18 5 0 -7 5 -12 12
-12 7 0 5 -6 -4 -17 -16 -18 -18 -69 -4 -92 4 -6 2 -18 -4 -26 -8 -10 -9 -15
-2 -15 14 0 52 40 52 54 0 5 3 7 6 4 7 -8 -43 -88 -56 -88 -5 0 -7 -6 -4 -14
3 -8 -3 -19 -16 -26 -18 -9 -21 -19 -19 -62 2 -33 -2 -53 -9 -56 -7 -2 -12 -9
-12 -15 0 -6 13 1 28 16 34 32 43 33 67 7 18 -20 18 -20 -12 -14 -40 8 -63
-23 -63 -87 0 -38 4 -48 25 -59 28 -15 33 -30 10 -30 -8 0 -15 4 -15 8 0 5 -9
13 -21 18 -17 8 -21 19 -22 71 -1 34 -5 64 -9 68 -4 4 -24 7 -45 7 l-38 1 30
13 c17 7 38 13 48 14 13 0 17 9 17 44 0 45 -19 74 -41 60 -8 -4 -9 -3 -5 4 11
18 -5 14 -27 -5 -19 -18 -20 -17 -8 5 17 32 35 36 68 16 l28 -17 -30 27 -30
26 30 -11 c16 -5 26 -7 22 -3 -4 4 -2 12 3 19 7 8 5 12 -5 12 -8 0 -12 -4 -9
-9 3 -4 1 -8 -5 -8 -16 0 -22 17 -23 71 -1 32 -6 53 -15 56 -7 3 -13 9 -13 14
0 4 7 6 15 3 9 -4 15 0 15 10 0 15 -11 15 -83 1 -15 -3 -16 -1 -6 11 6 8 24
14 40 14 15 0 31 5 34 10 3 6 14 10 24 10 10 0 18 7 18 15 0 18 -14 20 -19 3
-4 -10 -10 -10 -29 -1 -24 12 -24 12 -1 12 13 1 22 7 22 16 0 18 -11 19 -30 3
-9 -8 -8 -5 1 7 9 11 14 26 12 33 -3 6 0 12 6 12 6 0 11 -4 11 -10 0 -5 5 -10
11 -10 8 0 8 5 -1 15 -18 21 -30 19 -61 -11 -27 -26 -28 -26 -46 -8 -17 17
-17 18 0 11 12 -5 28 0 44 13 14 11 32 20 39 20 8 0 14 6 15 13 0 10 2 10 6 0
2 -7 9 -13 14 -13 6 0 8 4 5 9 -4 5 0 12 6 14 22 9 29 7 22 -4z m-2255 -95 c2
-2 16 -57 31 -124 l27 -120 -49 0 c-41 0 -50 4 -58 23 -9 22 -50 207 -50 227
0 8 16 9 48 4 26 -3 49 -8 51 -10z m1783 -27 c-2 -22 -14 -80 -27 -130 -20
-78 -26 -93 -46 -98 -20 -5 -21 -7 -7 -13 13 -6 14 -14 7 -38 -4 -17 -8 -33
-7 -37 0 -3 -1 -10 -2 -16 -1 -5 -3 -17 -4 -25 -1 -15 -102 -54 -117 -45 -4 3
-10 -1 -13 -7 -5 -10 -7 -10 -12 1 -5 11 -8 11 -15 0 -7 -11 -9 -11 -9 -1 0 7
-5 10 -10 7 -6 -4 -17 -2 -25 5 -9 7 -15 8 -20 0 -12 -20 -35 -10 -35 15 0 14
-4 25 -9 25 -4 0 -6 -11 -3 -25 3 -20 0 -25 -17 -25 -11 0 -21 5 -21 10 0 6 6
10 13 10 9 0 9 2 -1 9 -19 11 -12 86 8 86 8 0 17 -11 21 -25 5 -19 7 -15 6 18
0 23 -4 42 -9 42 -5 0 -6 5 -3 11 5 6 13 3 22 -10 8 -12 23 -21 34 -21 16 0
18 2 7 14 -7 7 -19 11 -25 9 -7 -3 -13 0 -13 6 0 6 1 11 3 11 1 1 38 3 82 7
44 3 83 8 87 12 5 5 58 226 58 244 0 7 47 15 80 13 23 -1 25 -4 22 -39z
m-1361 -27 c16 0 29 -4 29 -10 0 -5 -20 -10 -45 -10 -25 0 -45 -4 -45 -10 0
-5 16 -10 35 -10 38 0 44 -15 25 -64 -9 -24 -14 -26 -75 -26 -51 0 -65 3 -65
15 0 12 8 14 39 9 24 -4 41 -2 45 5 5 7 -3 11 -21 11 -45 0 -54 11 -43 50 12
42 27 52 64 45 16 -3 41 -5 57 -5z m1097 -2 c-3 -8 -18 -12 -40 -10 -20 2 -39
-1 -43 -7 -4 -7 7 -11 29 -11 33 0 36 -3 36 -28 0 -15 -7 -38 -16 -50 -13 -19
-24 -22 -75 -22 -44 0 -60 3 -57 13 3 6 22 13 43 14 49 3 59 13 12 13 -43 0
-49 17 -27 76 9 22 15 24 76 24 48 0 65 -3 62 -12z m-889 -7 c11 -7 11 -17 1
-60 -14 -60 -30 -71 -98 -71 -66 0 -79 16 -62 73 6 23 17 48 22 55 12 14 115
16 137 3z m-1209 -359 c0 -5 10 -8 23 -8 21 1 22 -4 28 -89 l5 -90 2 88 c2 78
4 88 20 85 15 -3 17 -16 17 -113 0 -90 -3 -110 -15 -110 -8 0 -17 11 -21 25
l-7 25 -1 -24 c-1 -18 -5 -22 -18 -16 -10 4 -29 8 -43 9 -21 1 -26 7 -28 34
-3 24 1 32 13 32 13 0 15 5 9 18 -4 9 -7 29 -7 45 0 15 -4 27 -8 27 -5 0 -9
16 -9 35 0 28 4 35 20 35 11 0 20 -4 20 -8z m936 -121 c18 -31 39 -31 49 0 8
24 16 24 49 -2 19 -15 24 -24 16 -29 -14 -9 -21 -138 -8 -146 4 -3 8 -12 8
-20 0 -19 -26 -18 -34 1 -4 12 -10 13 -30 4 -32 -15 -78 2 -96 36 -15 28 -7
81 16 106 14 16 14 20 0 41 -15 23 -13 38 5 38 4 0 16 -13 25 -29z m522 10
c23 -14 10 -46 -20 -49 -35 -4 -47 -32 -13 -32 13 0 36 5 51 10 58 22 83 -13
58 -82 -8 -22 -14 -51 -14 -64 0 -30 -11 -30 -39 0 -15 15 -29 22 -42 19 -11
-3 -42 5 -69 17 -75 35 -75 79 0 158 31 32 62 40 88 23z m490 -7 c70 -49 66
-154 -8 -198 -46 -27 -87 -21 -126 18 -28 28 -34 41 -34 77 0 36 6 47 40 81
45 42 88 50 128 22z"/>
<path d="M2415 3061 l-80 -46 -200 -5 -200 -5 -19 -38 c-10 -21 -19 -52 -20
-70 l-1 -32 213 -3 c137 -1 212 -6 212 -13 0 -5 -7 -24 -16 -40 -25 -49 -9
-44 20 6 l27 45 213 0 c189 0 216 2 234 18 22 19 48 104 37 121 -4 7 -71 11
-196 11 -104 0 -189 2 -189 5 0 3 12 23 26 45 15 22 25 42 23 43 -2 2 -40 -17
-84 -42z"/>
<path d="M2309 2115 c-7 -25 -17 -45 -20 -45 -4 0 -11 -15 -14 -32 -4 -18 -16
-50 -26 -70 -11 -21 -19 -46 -19 -57 0 -18 6 -19 63 -17 34 2 65 4 68 5 3 0 2
29 -2 64 -4 34 -11 92 -14 130 -4 37 -10 67 -15 67 -4 0 -14 -20 -21 -45z"/>
</g>
</svg>
